<svg width="270" height="25" viewBox="0 0 270 25" fill="none" xmlns="http://www.w3.org/2000/svg">
<g clip-path="url(#clip0_5_1326)">
<path d="M63.1694 14.0002H47.9153V22.3647H44.1733V1.52689H63.1694V13.9957V14.0002ZM59.2798 5.79149H47.9108V9.85577H59.2798V5.79149Z" fill="#231F20"/>
<path d="M68.6526 5.63123V9.85576H83.759V14.0002H68.6526V18.1045H83.759V22.3691H64.7629V1.48682H83.759V5.63123H68.6526Z" fill="#231F20"/>
<path d="M104.68 1.52689V14.156H99.7023L104.68 19.4133V22.3602H101.846L94.3669 14.1515H89.4299V22.3602H85.688V1.52689H104.684H104.68ZM100.794 5.79149H89.4254V9.89583H100.794V5.79149Z" fill="#231F20"/>
<path d="M110.02 5.63123V9.85576H125.126V14.0002H110.02V22.3647H106.278V1.48682H125.126V5.63123H110.02Z" fill="#231F20"/>
<path d="M146.047 22.3647H127.051V1.48682H146.047V22.3602V22.3647ZM142.305 5.63123H130.936V18.1001H142.305V5.63123Z" fill="#231F20"/>
<path d="M166.963 1.52689V14.156H161.986L166.963 19.4133V22.3602H164.13L156.646 14.1515H151.704V22.3602H147.962V1.52689H166.958H166.963ZM163.078 5.79149H151.709V9.89583H163.078V5.79149Z" fill="#231F20"/>
<path d="M187.557 1.52689V22.3602H183.815V8.73397L178.041 14.8682L172.446 8.73397V22.3602H168.561V1.52689H171.358L178.041 9.01442L184.867 1.52689H187.557Z" fill="#231F20"/>
<path d="M208.039 22.3647H204.297V14.156H192.928V22.3647H189.043V1.64708H208.039V22.3647ZM204.297 5.79149H192.928V9.89583H204.297V5.79149Z" fill="#231F20"/>
<path d="M228.414 1.52689V22.3602H224.672L213.303 8.05734V22.3602H209.561V1.52689H213.303L224.672 15.8298V1.52689H228.414Z" fill="#231F20"/>
<path d="M233.973 5.79149V18.2203H249.079V22.3647H230.083V1.64708H249.079V5.79149H233.973Z" fill="#231F20"/>
<path d="M269.888 5.63123L266.482 1.48682H251.004V22.3647H270V18.1001H254.889V14.0002H270V9.85576H254.889V5.63123H269.888Z" fill="black"/>
<path d="M270 5.63123V1.48682H266.482L269.888 5.63123H270Z" fill="#ED1C24"/>
<path d="M32.9074 13.8355H26.4844L34.2323 23.4731H40.6598L32.9119 13.8355H32.9074Z" fill="#ED1C24"/>
<path d="M0 16.8136V25L1.40098 23.2461V15.0196L0 16.8136Z" fill="black"/>
<path d="M30.6158 0L18.8216 14.9306V0H13.1282L2.73047 13.3191V21.5767L12.8104 8.92539V23.4731H18.5038L36.8598 0H30.6158Z" fill="black"/>
</g>
<defs>
<clipPath id="clip0_5_1326">
<rect width="270" height="25" fill="white"/>
</clipPath>
</defs>
</svg>
